<svg xmlns="http://www.w3.org/2000/svg" width="26.864"  stroke="#fff" height="31.582" viewBox="0 0 26.864 31.582">
  <g id="avatar" opacity="0.8">
    <g id="Group_14" data-name="Group 14">
      <path id="Path_2" data-name="Path 2" d="M143.793,17.017H144a6.035,6.035,0,0,0,4.611-1.995c2.518-2.838,2.1-7.7,2.054-8.169C150.5,3.368,148.855,1.7,147.495.922A7.272,7.272,0,0,0,143.976,0h-.111a7.283,7.283,0,0,0-3.519.9c-1.373.778-3.048,2.446-3.211,5.958-.046.464-.464,5.33,2.054,8.169A6.011,6.011,0,0,0,143.793,17.017Zm-4.912-10c0-.02.007-.039.007-.052.216-4.689,3.545-5.193,4.971-5.193h.078c1.766.039,4.768.759,4.971,5.193a.128.128,0,0,0,.007.052c.007.046.464,4.493-1.615,6.834a4.287,4.287,0,0,1-3.368,1.4h-.065a4.273,4.273,0,0,1-3.362-1.4C138.43,11.524,138.875,7.057,138.881,7.018Z" transform="translate(-130.475)" fill="#fff"/>
      <path id="Path_3" data-name="Path 3" d="M62.935,267.377v-.02c0-.052-.007-.1-.007-.163-.039-1.295-.124-4.323-2.963-5.291l-.065-.02a18.873,18.873,0,0,1-5.428-2.472.883.883,0,1,0-1.014,1.445,20.371,20.371,0,0,0,5.971,2.727c1.524.543,1.694,2.171,1.74,3.662a1.314,1.314,0,0,0,.007.164,11.87,11.87,0,0,1-.137,2.021,24.069,24.069,0,0,1-11.53,2.681,24.208,24.208,0,0,1-11.537-2.688,11.238,11.238,0,0,1-.137-2.021c0-.052.007-.1.007-.163.046-1.491.216-3.12,1.74-3.663a20.56,20.56,0,0,0,5.971-2.727.883.883,0,1,0-1.014-1.445,18.664,18.664,0,0,1-5.428,2.472c-.026.007-.046.013-.065.02-2.838.974-2.923,4-2.963,5.291a1.313,1.313,0,0,1-.007.163v.02a10.029,10.029,0,0,0,.334,2.963.839.839,0,0,0,.34.412c.2.131,4.9,3.126,12.766,3.126s12.57-3,12.766-3.126a.875.875,0,0,0,.34-.412A10.522,10.522,0,0,0,62.935,267.377Z" transform="translate(-36.073 -242.289)" fill="#fff"/>
    </g>
  </g>
</svg>
