<svg xmlns="http://www.w3.org/2000/svg" width="31"  stroke="#fff" height="34" viewBox="0 0 31 34">
  <path id="comment_FILL0_wght300_GRAD0_opsz48" d="M12.057,26.822H28.943a.841.841,0,0,0,.673-.315,1.2,1.2,0,0,0,.265-.8,1.108,1.108,0,0,0-.265-.776.871.871,0,0,0-.673-.291H12.057a.841.841,0,0,0-.673.315,1.13,1.13,0,0,0-.265.752,1.2,1.2,0,0,0,.265.8.841.841,0,0,0,.673.315Zm0-6.159H28.943a.841.841,0,0,0,.673-.315,1.34,1.34,0,0,0,0-1.6.841.841,0,0,0-.673-.315H12.057a.841.841,0,0,0-.673.315,1.34,1.34,0,0,0,0,1.6.841.841,0,0,0,.673.315Zm0-6.207H28.943a.841.841,0,0,0,.673-.315,1.13,1.13,0,0,0,.265-.752,1.2,1.2,0,0,0-.265-.8.841.841,0,0,0-.673-.315H12.057a.841.841,0,0,0-.673.315,1.2,1.2,0,0,0-.265.8,1.108,1.108,0,0,0,.265.776.871.871,0,0,0,.673.291ZM34,38.558,30.208,34.1H7.366a2.114,2.114,0,0,1-1.652-.849A2.961,2.961,0,0,1,5,31.284V7.813a2.961,2.961,0,0,1,.714-1.964A2.114,2.114,0,0,1,7.366,5H33.634a2.093,2.093,0,0,1,1.672.849A3.013,3.013,0,0,1,36,7.813V37.588a1.317,1.317,0,0,1-.714,1.285A.966.966,0,0,1,34,38.558ZM6.836,7.813v24.1H31.024l3.141,3.734V7.813a.693.693,0,0,0-.143-.461.48.48,0,0,0-.388-.17H7.366a.48.48,0,0,0-.387.17A.693.693,0,0,0,6.836,7.813Zm0,0v0Z" transform="translate(-5 -5)" fill="#fff"/>
</svg>
