<svg xmlns="http://www.w3.org/2000/svg" width="32.413" stroke="#fff" height="24.667" viewBox="0 0 32.413 24.667">
  <g id="envelope" transform="translate(14 100)">
    <g id="Group_23" data-name="Group 23" transform="translate(-14 -100)">
      <path id="Path_25" data-name="Path 25" d="M28.456,57.75H3.964A3.967,3.967,0,0,0,0,61.714v16.74a3.967,3.967,0,0,0,3.964,3.964H28.449a3.967,3.967,0,0,0,3.964-3.964V61.72A3.963,3.963,0,0,0,28.456,57.75Zm2.153,20.7a2.155,2.155,0,0,1-2.153,2.153H3.964a2.155,2.155,0,0,1-2.153-2.153V61.72a2.155,2.155,0,0,1,2.153-2.153H28.449A2.155,2.155,0,0,1,30.6,61.72V78.453Z" transform="translate(0 -57.75)" fill="#fff"/>
      <path id="Path_26" data-name="Path 26" d="M72.455,117.6l7.927-7.109a.907.907,0,1,0-1.214-1.348l-10.932,9.812-2.133-1.9c-.007-.007-.013-.013-.013-.02a1.342,1.342,0,0,0-.148-.127l-8.678-7.766a.907.907,0,0,0-1.207,1.355l8.021,7.169-7.987,7.478a.909.909,0,0,0-.04,1.281.926.926,0,0,0,.664.288.907.907,0,0,0,.617-.241l8.108-7.585,2.2,1.965a.9.9,0,0,0,1.207-.007l2.26-2.025,8.061,7.659a.908.908,0,0,0,1.281-.034.909.909,0,0,0-.034-1.281Z" transform="translate(-52.013 -105.472)" fill="#fff"/>
    </g>
  </g>
</svg>
