<svg xmlns="http://www.w3.org/2000/svg" width="31.107" height="32" viewBox="0 0 31.107 32">
  <g id="like" transform="translate(0 0)">
    <path id="Path_37" data-name="Path 37" d="M36.848,21.755a3.975,3.975,0,0,0,.93-2.657,4.081,4.081,0,0,0-.87-2.3,3.576,3.576,0,0,0-.85-4.115c-1.064-.97-2.871-1.405-5.373-1.285a21,21,0,0,0-3.292.422h-.007c-.335.06-.689.134-1.051.214a11.674,11.674,0,0,1,.836-3.888c.937-2.851.883-5.032-.174-6.491A4.254,4.254,0,0,0,23.592,0,1.681,1.681,0,0,0,22.3.589a4.5,4.5,0,0,0-.562,3.192c-.883,2.369-3.359,8.177-5.454,9.79a.716.716,0,0,0-.107.094,7.189,7.189,0,0,0-1.312,1.967,2.761,2.761,0,0,0-1.325-.335H9.459a2.786,2.786,0,0,0-2.784,2.784V28.955a2.786,2.786,0,0,0,2.784,2.784h4.082a2.778,2.778,0,0,0,1.606-.509l1.573.187a67.375,67.375,0,0,0,8.92.488c.8.06,1.546.094,2.242.094a15.014,15.014,0,0,0,3.112-.281,5.819,5.819,0,0,0,4.156-2.583,4.1,4.1,0,0,0,.455-2.563A4.268,4.268,0,0,0,37.122,23.1,4.52,4.52,0,0,0,36.848,21.755ZM9.459,29.932a.978.978,0,0,1-.977-.977V18.074a.978.978,0,0,1,.977-.977h4.082a.978.978,0,0,1,.977.977V28.949a.978.978,0,0,1-.977.977H9.459Zm25.676-8.96a.9.9,0,0,0-.12,1.091,2.784,2.784,0,0,1,.308,1.118A2.678,2.678,0,0,1,34.064,25.5a.912.912,0,0,0-.308,1.031,2.363,2.363,0,0,1-.181,1.726,4.186,4.186,0,0,1-2.958,1.7,17.629,17.629,0,0,1-4.878.147h-.094a66.053,66.053,0,0,1-8.7-.475H16.94l-.676-.08a2.835,2.835,0,0,0,.06-.589V18.074a2.831,2.831,0,0,0-.127-.83,5.593,5.593,0,0,1,1.245-2.3c3-2.382,5.942-10.419,6.069-10.767a.847.847,0,0,0,.04-.448,4.182,4.182,0,0,1,.087-1.941,2.4,2.4,0,0,1,1.887.9c.683.944.656,2.63-.08,4.865-1.124,3.406-1.218,5.2-.328,5.989a1.458,1.458,0,0,0,1.459.261c.408-.094.8-.174,1.164-.234l.087-.02c2.054-.448,5.735-.723,7.013.442a1.925,1.925,0,0,1,.228,2.442.9.9,0,0,0,.161,1.164,2.535,2.535,0,0,1,.743,1.559A2.485,2.485,0,0,1,35.135,20.972Z" transform="translate(-6.675 0)" fill="#fff"/>
  </g>
</svg>
