<svg xmlns="http://www.w3.org/2000/svg" width="31" stroke="#fff" height="23.884" viewBox="0 0 31 23.884">
  <path id="reply_FILL0_wght300_GRAD0_opsz48" d="M37.158,35.034a.939.939,0,0,1-.725-.295,1.06,1.06,0,0,1-.272-.748V27.783a5.928,5.928,0,0,0-1.836-4.419,6.1,6.1,0,0,0-4.419-1.79H10.6l6.617,6.617a.922.922,0,0,1,.272.68,1.026,1.026,0,0,1-1.768.725L7.563,21.438a1.8,1.8,0,0,1-.272-.453,1.212,1.212,0,0,1-.091-.453,1.331,1.331,0,0,1,.091-.5,1.207,1.207,0,0,1,.272-.408l8.2-8.2a.922.922,0,0,1,.68-.272,1.026,1.026,0,0,1,.725,1.768L10.6,19.489H29.906A8.24,8.24,0,0,1,38.2,27.783v6.209a1.008,1.008,0,0,1-1.042,1.042Z" transform="translate(-7.2 -11.15)" fill="#fff" opacity="0.8"/>
</svg>
